<svg width="128" height="40" viewBox="0 0 128 40" fill="none" xmlns="http://www.w3.org/2000/svg">
<path d="M4.12964 8.10713C4.75402 7.87534 5.55601 8.00978 7.1582 8.27681L16.6956 9.86617C17.1593 9.94346 17.4998 10.3445 17.5 10.8147C17.5 11.8887 17.0514 12.9145 16.2622 13.643L10.9668 18.5307C10.4142 19.0408 10.1378 19.2963 10.0354 19.5952C9.94548 19.8578 9.94542 20.1432 10.0354 20.4057C10.1379 20.7045 10.4142 20.9601 10.9668 21.4702L16.2622 26.3566C17.0514 27.0852 17.5 28.1109 17.5 29.185C17.5 29.6553 17.1595 30.0562 16.6956 30.1335L7.1582 31.7241C5.55586 31.9911 4.75405 32.1244 4.12964 31.8925C3.58173 31.689 3.12288 31.2997 2.83203 30.7927C2.50064 30.2149 2.5 29.403 2.5 27.7788V12.2221C2.5 10.5976 2.50061 9.78478 2.83203 9.20699C3.12289 8.70021 3.58187 8.31059 4.12964 8.10713Z" fill="url(#paint0_linear_15352_955)"/>
<path d="M32.8418 8.27681C34.444 8.00978 35.246 7.87534 35.8704 8.10713C36.4181 8.31059 36.8771 8.70021 37.168 9.20699C37.4994 9.78478 37.5 10.5976 37.5 12.2221V27.7788C37.5 29.403 37.4994 30.2149 37.168 30.7927C36.8771 31.2997 36.4183 31.689 35.8704 31.8925C35.246 32.1244 34.4441 31.9911 32.8418 31.7241L23.3044 30.1335C22.8405 30.0562 22.5 29.6553 22.5 29.185C22.5 28.1109 22.9486 27.0852 23.7378 26.3566L29.0332 21.4702C29.5858 20.9601 29.8621 20.7045 29.9646 20.4057C30.0546 20.1432 30.0545 19.8578 29.9646 19.5952C29.8622 19.2963 29.5858 19.0408 29.0332 18.5307L23.7378 13.643C22.9486 12.9145 22.5 11.8887 22.5 10.8147C22.5002 10.3445 22.8407 9.94346 23.3044 9.86617L32.8418 8.27681Z" fill="url(#paint1_linear_15352_955)"/>
<path d="M19.837 13.8275C19.9371 13.7662 20.0628 13.7663 20.1629 13.8275C20.2794 13.8988 20.3496 14.2497 20.49 14.9518L20.7269 16.1359C20.9158 17.0804 21.0103 17.553 21.2432 17.9328C21.4491 18.2684 21.7316 18.5508 22.0672 18.7567C22.4471 18.9897 22.9202 19.0841 23.8653 19.2731L25.0481 19.5099C25.7503 19.6503 26.1023 19.7206 26.1736 19.837C26.2347 19.937 26.2346 20.063 26.1736 20.163C26.1023 20.2795 25.7503 20.3497 25.0481 20.4901L23.8653 20.7269C22.9202 20.916 22.4471 21.0103 22.0672 21.2433C21.7315 21.4492 21.4491 21.7316 21.2432 22.0673C21.0102 22.4471 20.9159 22.9203 20.7269 23.8654L20.49 25.0482C20.3496 25.7504 20.2794 26.1024 20.1629 26.1737C20.0629 26.2347 19.9369 26.2348 19.837 26.1737C19.7205 26.1024 19.6502 25.7504 19.5098 25.0482L19.273 23.8654C19.084 22.9203 18.9896 22.4471 18.7566 22.0673C18.5507 21.7317 18.2683 21.4492 17.9327 21.2433C17.5529 21.0104 17.0803 20.9159 16.1358 20.7269L14.9517 20.4901C14.2496 20.3497 13.8987 20.2795 13.8274 20.163C13.7662 20.0629 13.7662 19.9371 13.8274 19.837C13.899 19.7207 14.2499 19.6503 14.9517 19.5099L16.1358 19.2731C17.0804 19.0842 17.5529 18.9897 17.9327 18.7567C18.2684 18.5508 18.5507 18.2685 18.7566 17.9328C18.9896 17.553 19.0841 17.0805 19.273 16.1359L19.5098 14.9518C19.6502 14.25 19.7206 13.8991 19.837 13.8275Z" fill="url(#paint2_linear_15352_955)"/>
<path d="M51.6712 24.1681V23.9431L51.525 23.8868V17.4518C51.525 16.7993 51.3638 16.3006 51.0413 15.9556C50.7188 15.6106 50.2575 15.4381 49.6575 15.4381C49.0875 15.4381 48.66 15.5581 48.375 15.7981C48.09 16.0306 47.9475 16.3118 47.9475 16.6418V17.5193C47.9475 17.8793 47.8275 18.1568 47.5875 18.3518C47.355 18.5468 47.0325 18.6443 46.62 18.6443C46.26 18.6443 45.9825 18.5506 45.7875 18.3631C45.6 18.1681 45.5063 17.9131 45.5063 17.5981C45.5063 17.1406 45.6825 16.6943 46.035 16.2593C46.395 15.8243 46.9163 15.4681 47.5988 15.1906C48.2888 14.9131 49.1213 14.7743 50.0963 14.7743C51.3713 14.7743 52.3163 15.0481 52.9313 15.5956C53.5538 16.1356 53.865 16.8668 53.865 17.7893V23.8756C53.865 24.1231 53.91 24.3031 54 24.4156C54.0975 24.5281 54.2288 24.5843 54.3938 24.5843C54.5813 24.5843 54.7163 24.5431 54.7988 24.4606C54.8813 24.3706 54.9488 24.2843 55.0013 24.2018C55.0388 24.1493 55.0762 24.1081 55.1137 24.0781C55.1587 24.0406 55.2075 24.0218 55.26 24.0218C55.335 24.0218 55.3913 24.0518 55.4288 24.1118C55.4663 24.1643 55.485 24.2393 55.485 24.3368C55.485 24.5468 55.41 24.7643 55.26 24.9893C55.1175 25.2143 54.9038 25.4056 54.6188 25.5631C54.3338 25.7206 53.9813 25.7993 53.5613 25.7993C52.9688 25.7993 52.5038 25.6606 52.1663 25.3831C51.8363 25.0981 51.6712 24.6931 51.6712 24.1681ZM45 23.2118C45 22.3193 45.3938 21.5918 46.1813 21.0293C46.9688 20.4668 48.0675 20.1856 49.4775 20.1856C49.9875 20.1856 50.4525 20.2343 50.8725 20.3318C51.3 20.4218 51.675 20.5381 51.9975 20.6806L51.8287 21.2768C51.5213 21.1493 51.2025 21.0443 50.8725 20.9618C50.5425 20.8718 50.1863 20.8268 49.8037 20.8268C49.0613 20.8268 48.48 21.0068 48.06 21.3668C47.6475 21.7193 47.4413 22.2068 47.4413 22.8293C47.4413 23.4293 47.61 23.8906 47.9475 24.2131C48.2925 24.5356 48.7313 24.6968 49.2638 24.6968C49.7588 24.6968 50.235 24.5843 50.6925 24.3593C51.1575 24.1343 51.555 23.8118 51.885 23.3918L52.1213 23.9093C51.6787 24.5093 51.1087 24.9743 50.4112 25.3043C49.7212 25.6343 48.9863 25.7993 48.2063 25.7993C47.2613 25.7993 46.4888 25.5668 45.8888 25.1018C45.2962 24.6293 45 23.9993 45 23.2118Z" fill="#1A1F2E"/>
<path d="M59.3677 9.52059V24.0106C59.3677 24.2131 59.4052 24.3668 59.4802 24.4718C59.5552 24.5693 59.6639 24.6368 59.8064 24.6743L60.3239 24.7868C60.4589 24.8243 60.5564 24.8768 60.6164 24.9443C60.6764 25.0043 60.7064 25.0831 60.7064 25.1806C60.7064 25.2931 60.6652 25.3831 60.5827 25.4506C60.5077 25.5106 60.3839 25.5406 60.2114 25.5406H56.1277C55.9627 25.5406 55.8389 25.5106 55.7564 25.4506C55.6814 25.3831 55.6439 25.2931 55.6439 25.1806C55.6439 25.0831 55.6739 25.0043 55.7339 24.9443C55.7939 24.8843 55.8877 24.8356 56.0152 24.7981L56.5552 24.6743C56.7052 24.6293 56.8177 24.5618 56.8927 24.4718C56.9677 24.3743 57.0052 24.2243 57.0052 24.0218V11.0956C57.0052 10.9306 56.9752 10.8106 56.9152 10.7356C56.8627 10.6606 56.7727 10.6156 56.6452 10.6006L55.8802 10.5781C55.7527 10.5556 55.6627 10.5181 55.6102 10.4656C55.5577 10.4131 55.5314 10.3456 55.5314 10.2631C55.5314 10.1656 55.5614 10.0868 55.6214 10.0268C55.6814 9.95934 55.7939 9.89934 55.9589 9.84684L57.8489 9.18309C58.0889 9.09309 58.2802 9.03309 58.4227 9.00309C58.5652 8.96559 58.6852 8.94684 58.7827 8.94684C58.9777 8.94684 59.1239 8.99934 59.2214 9.10434C59.3189 9.20184 59.3677 9.34059 59.3677 9.52059Z" fill="#1A1F2E"/>
<path d="M67.7435 24.8318C68.8085 24.9968 69.6485 25.2106 70.2635 25.4731C70.8785 25.7281 71.3172 26.0431 71.5797 26.4181C71.8422 26.8006 71.9735 27.2506 71.9735 27.7681C71.9735 28.7281 71.4672 29.5156 70.4547 30.1306C69.4422 30.7456 67.9872 31.0531 66.0897 31.0531C64.8072 31.0531 63.7797 30.9368 63.0072 30.7043C62.2347 30.4793 61.6722 30.1681 61.3197 29.7706C60.9747 29.3806 60.8022 28.9381 60.8022 28.4431C60.8022 27.8281 61.1022 27.2693 61.7022 26.7668C62.3097 26.2718 63.3785 25.9306 64.9085 25.7431L65.1447 26.0693C64.3197 26.1743 63.6972 26.4031 63.2772 26.7556C62.8572 27.1156 62.6472 27.5206 62.6472 27.9706C62.6472 28.6381 62.9322 29.1781 63.5022 29.5906C64.0797 30.0106 65.066 30.2206 66.461 30.2206C67.2485 30.2206 67.8935 30.1456 68.396 29.9956C68.906 29.8531 69.281 29.6431 69.521 29.3656C69.761 29.0956 69.881 28.7731 69.881 28.3981C69.881 28.1206 69.7835 27.8693 69.5885 27.6443C69.3935 27.4268 69.0485 27.2281 68.5535 27.0481C68.0585 26.8681 67.3535 26.7031 66.4385 26.5531C65.336 26.3731 64.496 26.1818 63.9185 25.9793C63.3485 25.7843 62.9622 25.5668 62.7597 25.3268C62.5572 25.0793 62.456 24.7943 62.456 24.4718C62.456 24.2018 62.5272 23.9468 62.6697 23.7068C62.8122 23.4668 63.056 23.2531 63.401 23.0656C63.746 22.8706 64.2222 22.7281 64.8297 22.6381L65.1222 22.7843C64.8447 22.9118 64.646 23.0393 64.526 23.1668C64.4135 23.2943 64.3572 23.4331 64.3572 23.5831C64.3572 23.7106 64.421 23.8381 64.5485 23.9656C64.676 24.0931 64.976 24.2281 65.4485 24.3706C65.9285 24.5056 66.6935 24.6593 67.7435 24.8318ZM68.261 15.9218L68.621 15.2468C68.9435 14.6168 69.326 14.1406 69.7685 13.8181C70.211 13.4956 70.676 13.3343 71.1635 13.3343C71.5985 13.3343 71.9472 13.4506 72.2097 13.6831C72.4722 13.9156 72.6035 14.2306 72.6035 14.6281C72.6035 14.9581 72.521 15.2243 72.356 15.4268C72.191 15.6293 71.9697 15.7306 71.6922 15.7306C71.4897 15.7306 71.3285 15.6818 71.2085 15.5843C71.096 15.4793 70.9947 15.3631 70.9047 15.2356C70.8147 15.1081 70.7135 14.9956 70.601 14.8981C70.496 14.7931 70.3497 14.7406 70.1622 14.7406C69.9447 14.7406 69.7422 14.8268 69.5547 14.9993C69.3672 15.1718 69.131 15.5206 68.846 16.0456L68.261 15.9218ZM71.0735 18.8131C71.0735 19.6681 70.856 20.4218 70.421 21.0743C69.9935 21.7193 69.401 22.2256 68.6435 22.5931C67.886 22.9531 67.016 23.1331 66.0335 23.1331C65.066 23.1331 64.2185 22.9568 63.491 22.6043C62.771 22.2443 62.2085 21.7606 61.8035 21.1531C61.406 20.5456 61.2072 19.8631 61.2072 19.1056C61.2072 18.2431 61.4172 17.4893 61.8372 16.8443C62.2647 16.1993 62.8572 15.6968 63.6147 15.3368C64.3797 14.9693 65.2572 14.7856 66.2472 14.7856C67.2222 14.7856 68.0697 14.9618 68.7897 15.3143C69.5097 15.6668 70.0685 16.1468 70.466 16.7543C70.871 17.3618 71.0735 18.0481 71.0735 18.8131ZM65.8197 15.5731C65.3247 15.5881 64.9085 15.7306 64.571 16.0006C64.2335 16.2631 63.9897 16.6418 63.8397 17.1368C63.6897 17.6243 63.641 18.2131 63.6935 18.9031C63.746 19.6156 63.8922 20.2343 64.1322 20.7593C64.3722 21.2768 64.691 21.6706 65.0885 21.9406C65.486 22.2106 65.9397 22.3343 66.4497 22.3118C67.1997 22.2818 67.7585 21.9781 68.126 21.4006C68.501 20.8231 68.6472 20.0168 68.5647 18.9818C68.4897 17.9018 68.2047 17.0581 67.7097 16.4506C67.2222 15.8356 66.5922 15.5431 65.8197 15.5731Z" fill="#1A1F2E"/>
<path d="M82.0009 18.9818C82.0009 19.3193 81.8996 19.5781 81.6971 19.7581C81.5021 19.9306 81.2171 20.0168 80.8421 20.0168H73.6534V19.3193H79.0421C79.4096 19.3193 79.5934 19.1581 79.5934 18.8356C79.5934 17.8231 79.3759 17.0356 78.9409 16.4731C78.5134 15.9106 77.9359 15.6293 77.2084 15.6293C76.6384 15.6293 76.1359 15.7906 75.7009 16.1131C75.2734 16.4356 74.9359 16.8968 74.6884 17.4968C74.4484 18.0893 74.3284 18.7906 74.3284 19.6006C74.3284 21.0931 74.6846 22.2256 75.3971 22.9981C76.1096 23.7706 77.0434 24.1568 78.1984 24.1568C78.9409 24.1568 79.5859 23.9881 80.1334 23.6506C80.6809 23.3131 81.0634 22.8668 81.2809 22.3118C81.3784 22.1918 81.4571 22.1093 81.5171 22.0643C81.5771 22.0193 81.6446 21.9968 81.7196 21.9968C81.8246 21.9968 81.8996 22.0381 81.9446 22.1206C81.9896 22.2031 82.0084 22.3043 82.0009 22.4243C81.9559 23.0393 81.7309 23.6056 81.3259 24.1231C80.9284 24.6331 80.3959 25.0418 79.7284 25.3493C79.0684 25.6493 78.3109 25.7993 77.4559 25.7993C76.4059 25.7993 75.4796 25.5818 74.6771 25.1468C73.8821 24.7043 73.2596 24.0818 72.8096 23.2793C72.3671 22.4768 72.1459 21.5393 72.1459 20.4668C72.1459 19.3718 72.3634 18.3968 72.7984 17.5418C73.2334 16.6793 73.8521 16.0006 74.6546 15.5056C75.4571 15.0106 76.4096 14.7631 77.5121 14.7631C78.4347 14.7631 79.2296 14.9431 79.8971 15.3031C80.5721 15.6631 81.0896 16.1581 81.4496 16.7881C81.8171 17.4181 82.0009 18.1493 82.0009 18.9818Z" fill="#1A1F2E"/>
<path d="M85.8834 19.6793C85.8834 18.6218 86.0409 17.7256 86.3559 16.9906C86.6709 16.2556 87.0796 15.7006 87.5821 15.3256C88.0846 14.9506 88.6171 14.7631 89.1796 14.7631C89.8546 14.7631 90.3796 14.9506 90.7546 15.3256C91.1296 15.6931 91.3171 16.2068 91.3171 16.8668C91.3171 17.3843 91.2046 17.7743 90.9796 18.0368C90.7621 18.2993 90.4809 18.4306 90.1359 18.4306C89.7834 18.4306 89.5096 18.3331 89.3146 18.1381C89.1196 17.9431 89.0221 17.6693 89.0221 17.3168V16.9343C89.0221 16.6793 88.9621 16.4918 88.8421 16.3718C88.7221 16.2443 88.5271 16.1806 88.2571 16.1806C87.9346 16.1806 87.6196 16.3118 87.3121 16.5743C87.0046 16.8293 86.7534 17.2156 86.5584 17.7331C86.3634 18.2431 86.2659 18.8918 86.2659 19.6793H85.8834ZM86.1534 15.4268L86.2659 18.0931V24.0106C86.2659 24.1981 86.3071 24.3406 86.3896 24.4381C86.4796 24.5356 86.6296 24.5993 86.8396 24.6293L87.8521 24.7756C88.0021 24.7906 88.1146 24.8318 88.1896 24.8993C88.2646 24.9668 88.3021 25.0568 88.3021 25.1693C88.3021 25.2893 88.2571 25.3831 88.1671 25.4506C88.0846 25.5106 87.9609 25.5406 87.7959 25.5406H83.0371C82.8721 25.5406 82.7484 25.5068 82.6659 25.4393C82.5834 25.3718 82.5421 25.2856 82.5421 25.1806C82.5421 25.0831 82.5721 25.0043 82.6321 24.9443C82.6996 24.8843 82.7971 24.8356 82.9246 24.7981L83.4646 24.6743C83.6071 24.6368 83.7159 24.5693 83.7909 24.4718C83.8659 24.3743 83.9034 24.2243 83.9034 24.0218V17.0131C83.9034 16.8481 83.8771 16.7281 83.8246 16.6531C83.7721 16.5781 83.6821 16.5331 83.5546 16.5181L82.7784 16.4843C82.6584 16.4693 82.5684 16.4356 82.5084 16.3831C82.4559 16.3306 82.4296 16.2631 82.4296 16.1806C82.4296 16.0831 82.4596 16.0043 82.5196 15.9443C82.5871 15.8768 82.7034 15.8168 82.8684 15.7643L84.7246 15.1118C85.0096 15.0068 85.2234 14.9393 85.3659 14.9093C85.5084 14.8718 85.6209 14.8531 85.7034 14.8531C85.8459 14.8531 85.9509 14.8981 86.0184 14.9881C86.0859 15.0706 86.1309 15.2168 86.1534 15.4268Z" fill="#1A1F2E"/>
<path d="M95.0233 15.4156V24.0106C95.0233 24.2131 95.0608 24.3668 95.1358 24.4718C95.2108 24.5693 95.3233 24.6368 95.4733 24.6743L95.9795 24.7868C96.2045 24.8693 96.317 24.9931 96.317 25.1581C96.317 25.4131 96.1483 25.5406 95.8108 25.5406H91.7945C91.6295 25.5406 91.5058 25.5106 91.4233 25.4506C91.3408 25.3831 91.2995 25.2931 91.2995 25.1806C91.2995 25.0831 91.3296 25.0043 91.3896 24.9443C91.4571 24.8843 91.5545 24.8356 91.682 24.7981L92.222 24.6743C92.3645 24.6293 92.4733 24.5618 92.5483 24.4718C92.6233 24.3743 92.6608 24.2243 92.6608 24.0218V17.0018C92.6608 16.8293 92.6345 16.7093 92.582 16.6418C92.5295 16.5668 92.4395 16.5218 92.312 16.5068L91.5358 16.4731C91.4158 16.4506 91.3258 16.4131 91.2658 16.3606C91.2133 16.3081 91.187 16.2406 91.187 16.1581C91.187 16.0606 91.2171 15.9818 91.2771 15.9218C91.3446 15.8618 91.4608 15.8018 91.6258 15.7418L93.5158 15.0781C93.7408 14.9956 93.9245 14.9393 94.067 14.9093C94.217 14.8718 94.3521 14.8531 94.4721 14.8531C94.6521 14.8531 94.787 14.9056 94.877 15.0106C94.9745 15.1081 95.0233 15.2431 95.0233 15.4156ZM94.7083 17.8006L94.2808 17.3618L94.7645 16.9343C95.657 16.1318 96.437 15.5693 97.1045 15.2468C97.7795 14.9243 98.4245 14.7631 99.0395 14.7631C99.9846 14.7631 100.746 15.0593 101.323 15.6518C101.901 16.2443 102.19 17.0506 102.19 18.0706V23.9768C102.19 24.1868 102.231 24.3481 102.313 24.4606C102.403 24.5656 102.523 24.6406 102.673 24.6856L103.157 24.7981C103.285 24.8356 103.378 24.8843 103.438 24.9443C103.498 25.0043 103.528 25.0831 103.528 25.1806C103.528 25.2931 103.487 25.3831 103.405 25.4506C103.33 25.5106 103.21 25.5406 103.045 25.5406H99.0058C98.6683 25.5406 98.4996 25.4131 98.4996 25.1581C98.4996 24.9931 98.6121 24.8693 98.8371 24.7868L99.3658 24.6743C99.5308 24.6368 99.6471 24.5618 99.7146 24.4493C99.7896 24.3368 99.8271 24.1793 99.8271 23.9768V18.4306C99.8271 17.6806 99.6395 17.1181 99.2646 16.7431C98.8971 16.3681 98.4095 16.1806 97.802 16.1806C97.4195 16.1806 97.0108 16.2781 96.5758 16.4731C96.1408 16.6606 95.6796 16.9643 95.1921 17.3843L94.7083 17.8006Z" fill="#1A1F2E"/>
<path d="M109.438 14.7631C110.533 14.7631 111.501 14.9993 112.341 15.4718C113.181 15.9368 113.837 16.5856 114.309 17.4181C114.782 18.2506 115.018 19.2106 115.018 20.2981C115.018 21.3556 114.778 22.3006 114.298 23.1331C113.818 23.9581 113.154 24.6106 112.307 25.0906C111.459 25.5631 110.477 25.7993 109.359 25.7993C108.264 25.7993 107.297 25.5631 106.457 25.0906C105.624 24.6181 104.968 23.9656 104.488 23.1331C104.016 22.3006 103.779 21.3481 103.779 20.2756C103.779 19.2031 104.019 18.2543 104.499 17.4293C104.979 16.6043 105.643 15.9556 106.491 15.4831C107.338 15.0031 108.321 14.7631 109.438 14.7631ZM110.226 24.8543C110.848 24.7643 111.354 24.5093 111.744 24.0893C112.134 23.6693 112.397 23.0993 112.532 22.3793C112.667 21.6593 112.652 20.8156 112.487 19.8481C112.329 18.8656 112.063 18.0518 111.688 17.4068C111.321 16.7618 110.871 16.2968 110.338 16.0118C109.806 15.7193 109.221 15.6181 108.583 15.7081C107.953 15.7981 107.443 16.0568 107.053 16.4843C106.663 16.9043 106.401 17.4743 106.266 18.1943C106.138 18.9068 106.153 19.7506 106.311 20.7256C106.476 21.7006 106.742 22.5143 107.109 23.1668C107.484 23.8118 107.938 24.2768 108.471 24.5618C109.003 24.8468 109.588 24.9443 110.226 24.8543Z" fill="#1A1F2E"/>
<path d="M119.306 15.4156V24.0106C119.306 24.2131 119.343 24.3668 119.418 24.4718C119.493 24.5693 119.606 24.6368 119.756 24.6743L120.262 24.7868C120.487 24.8693 120.599 24.9931 120.599 25.1581C120.599 25.4131 120.431 25.5406 120.093 25.5406H116.077C115.912 25.5406 115.788 25.5106 115.706 25.4506C115.623 25.3831 115.582 25.2931 115.582 25.1806C115.582 25.0831 115.612 25.0043 115.672 24.9443C115.739 24.8843 115.837 24.8356 115.964 24.7981L116.504 24.6743C116.647 24.6293 116.756 24.5618 116.831 24.4718C116.906 24.3743 116.943 24.2243 116.943 24.0218V17.0018C116.943 16.8293 116.917 16.7093 116.864 16.6418C116.812 16.5668 116.722 16.5218 116.594 16.5068L115.818 16.4731C115.698 16.4506 115.608 16.4131 115.548 16.3606C115.496 16.3081 115.469 16.2406 115.469 16.1581C115.469 16.0606 115.499 15.9818 115.559 15.9218C115.627 15.8618 115.743 15.8018 115.908 15.7418L117.798 15.0781C118.023 14.9956 118.207 14.9393 118.349 14.9093C118.499 14.8718 118.634 14.8531 118.754 14.8531C118.934 14.8531 119.069 14.9056 119.159 15.0106C119.257 15.1081 119.306 15.2431 119.306 15.4156ZM118.991 17.8006L118.563 17.3618L119.047 16.9343C119.939 16.1318 120.719 15.5693 121.387 15.2468C122.062 14.9243 122.707 14.7631 123.322 14.7631C124.267 14.7631 125.028 15.0593 125.606 15.6518C126.183 16.2443 126.472 17.0506 126.472 18.0706V23.9768C126.472 24.1868 126.513 24.3481 126.596 24.4606C126.686 24.5656 126.806 24.6406 126.956 24.6856L127.439 24.7981C127.567 24.8356 127.661 24.8843 127.721 24.9443C127.781 25.0043 127.811 25.0831 127.811 25.1806C127.811 25.2931 127.769 25.3831 127.687 25.4506C127.612 25.5106 127.492 25.5406 127.327 25.5406H123.288C122.951 25.5406 122.782 25.4131 122.782 25.1581C122.782 24.9931 122.894 24.8693 123.119 24.7868L123.648 24.6743C123.813 24.6368 123.929 24.5618 123.997 24.4493C124.072 24.3368 124.109 24.1793 124.109 23.9768V18.4306C124.109 17.6806 123.922 17.1181 123.547 16.7431C123.179 16.3681 122.692 16.1806 122.084 16.1806C121.702 16.1806 121.293 16.2781 120.858 16.4731C120.423 16.6606 119.962 16.9643 119.474 17.3843L118.991 17.8006Z" fill="#1A1F2E"/>
<defs>
<linearGradient id="paint0_linear_15352_955" x1="2.5" y1="7.5" x2="37.5" y2="32.5" gradientUnits="userSpaceOnUse">
<stop stop-color="#1A1F2E"/>
<stop offset="1" stop-color="#303D5C"/>
</linearGradient>
<linearGradient id="paint1_linear_15352_955" x1="2.5" y1="7.5" x2="37.5" y2="32.5" gradientUnits="userSpaceOnUse">
<stop stop-color="#1A1F2E"/>
<stop offset="1" stop-color="#303D5C"/>
</linearGradient>
<linearGradient id="paint2_linear_15352_955" x1="13.7501" y1="13.75" x2="26.2501" y2="26.25" gradientUnits="userSpaceOnUse">
<stop stop-color="#C9922A"/>
<stop offset="1" stop-color="#D8A737"/>
</linearGradient>
</defs>
</svg>
